<svg width="402" height="125" viewBox="0 0 402 125" fill="none" xmlns="http://www.w3.org/2000/svg">
<path d="M37.9055 3.55429H3.55391V37.9059L15.9931 25.4667V15.9934H25.4663L37.9055 3.55429Z" fill="white"/>
<path d="M108.398 25.4667V15.9934H98.925L86.4859 3.55429H120.837V37.9059L108.398 25.4667Z" fill="white"/>
<path d="M98.9251 108.399H108.398V98.9254L120.837 86.4863V120.838H86.4859L98.9251 108.399Z" fill="white"/>
<path d="M15.9931 98.9254V108.399H25.4663L37.9054 120.838H3.55391V86.4863L15.9931 98.9254Z" fill="white"/>
<path d="M62.1959 0L81.7432 19.5473H70.2405L62.1956 11.5024L54.1507 19.5473H42.6485L62.1959 0Z" fill="white"/>
<path d="M19.5472 54.1508L19.5472 42.6486L0 62.1958L19.5472 81.7431L19.5472 70.241L11.5021 62.1959L19.5472 54.1508Z" fill="white"/>
<path d="M54.1506 104.844H42.6486L62.1959 124.392L81.7431 104.844H70.2406L62.1956 112.889L54.1506 104.844Z" fill="white"/>
<path d="M104.844 70.2407V81.7433L124.392 62.1958L104.844 42.6484V54.1511L112.889 62.1959L104.844 70.2407Z" fill="white"/>
<path fill-rule="evenodd" clip-rule="evenodd" d="M31.9864 41.7118L41.7117 31.9866H82.68L92.4052 41.7118V82.68L82.6799 92.4053H41.7118L31.9864 82.68V41.7118ZM51.5337 51.5339H72.858V72.8581H51.5337V51.5339Z" fill="white"/>
<path d="M217.816 38.6914H213.096V48.1719L208.375 48.1725L208.376 52.9121L213.096 52.9115V62.389C213.096 70.2418 219.436 76.6076 227.257 76.6076H231.978V71.8681H227.257C222.043 71.8681 217.816 67.6242 217.816 62.389V52.9112L227.276 52.91L227.276 48.1705L217.816 48.1716V38.6914Z" fill="white"/>
<path fill-rule="evenodd" clip-rule="evenodd" d="M260.301 62.389C260.301 70.2418 253.961 76.6076 246.14 76.6076C238.318 76.6076 231.978 70.2418 231.978 62.389C231.978 54.5362 238.318 48.1705 246.14 48.1705C253.961 48.1705 260.301 54.5362 260.301 62.389ZM255.581 62.389C255.581 67.6242 251.354 71.8681 246.14 71.8681C240.925 71.8681 236.698 67.6242 236.698 62.389C236.698 57.1538 240.925 52.91 246.14 52.91C251.354 52.91 255.581 57.1538 255.581 62.389Z" fill="white"/>
<path d="M161.169 76.6076C168.991 76.6076 175.331 70.2418 175.331 62.389V48.1705H170.611V62.389C170.611 67.6242 166.384 71.8681 161.169 71.8681C155.955 71.8681 151.728 67.6242 151.728 62.389V48.1705H147.008V62.389C147.008 70.2418 153.348 76.6076 161.169 76.6076Z" fill="white"/>
<path d="M180.052 62.389C180.052 54.5362 186.392 48.1705 194.213 48.1705C202.035 48.1705 208.375 54.5362 208.375 62.389V76.6076H203.655V62.389C203.655 57.1538 199.428 52.91 194.213 52.91C188.999 52.91 184.772 57.1538 184.772 62.389V76.6076H180.052V62.389Z" fill="white"/>
<path d="M279.184 48.1705C271.362 48.1705 265.022 54.5362 265.022 62.389V76.6076H269.742V62.389C269.742 57.1538 273.969 52.91 279.184 52.91C284.398 52.91 288.625 57.1538 288.625 62.389V76.6076H293.345V62.389C293.345 54.5362 287.005 48.1705 279.184 48.1705Z" fill="white"/>
<path fill-rule="evenodd" clip-rule="evenodd" d="M326.389 62.389C326.389 63.1965 326.322 63.9881 326.193 64.7588H303.084C304.132 68.847 307.828 71.8681 312.227 71.8681H321.669V76.6076H312.227C305.21 76.6076 299.385 71.4835 298.262 64.7588C298.133 63.9881 298.066 63.1965 298.066 62.389C298.066 57.4426 300.58 53.0874 304.397 50.5402C306.639 49.0436 309.333 48.1705 312.227 48.1705C314.916 48.1705 317.43 48.9226 319.571 50.2288C319.658 50.2822 319.745 50.3366 319.831 50.3918C319.907 50.4405 319.983 50.49 320.058 50.5402C323.874 53.0876 326.389 57.4435 326.389 62.389ZM303.084 60.0193H321.371C320.323 55.9307 316.627 52.91 312.227 52.91C307.828 52.91 304.132 55.9307 303.084 60.0193Z" fill="white"/>
<rect x="332.376" y="53.6582" width="69.6239" height="22.9493" fill="white" fill-opacity="0.05"/>
<rect x="332.598" y="53.8799" width="69.1804" height="22.5058" stroke="white" stroke-opacity="0.2" stroke-width="0.443464"/>
<mask id="path-6-outside-1_1009_1167" maskUnits="userSpaceOnUse" x="335.367" y="56.207" width="64" height="18" fill="black">
<rect fill="white" x="335.367" y="56.207" width="64" height="18"/>
<path d="M348.39 58.4411H348.303L342.768 67.8161L337.232 58.4628H337.146V72.5793H336.367V57.4668H337.492L342.746 66.3438H342.832L348.065 57.4668H349.168V72.5793H348.39V58.4411Z"/>
<path d="M354.31 57.4668V66.7768C354.31 67.7295 354.375 68.545 354.505 69.2234C354.649 69.9018 354.887 70.4575 355.218 70.8905C355.55 71.3236 355.982 71.6411 356.516 71.8432C357.049 72.0308 357.719 72.1247 358.527 72.1247C359.319 72.1247 359.983 72.0308 360.516 71.8432C361.064 71.6411 361.503 71.3236 361.835 70.8905C362.166 70.4575 362.397 69.9018 362.527 69.2234C362.671 68.545 362.743 67.7295 362.743 66.7768V57.4668H363.543V66.6469C363.543 67.7583 363.457 68.711 363.284 69.5049C363.111 70.2843 362.822 70.9266 362.419 71.4318C362.03 71.9226 361.511 72.2834 360.862 72.5144C360.228 72.7309 359.442 72.8391 358.505 72.8391C357.568 72.8391 356.782 72.7309 356.148 72.5144C355.514 72.2834 355.002 71.9226 354.613 71.4318C354.224 70.9266 353.943 70.2843 353.77 69.5049C353.597 68.711 353.51 67.7583 353.51 66.6469V57.4668H354.31Z"/>
<path d="M371.678 72.8391C370.438 72.8391 369.407 72.6082 368.586 72.1463C367.778 71.67 367.101 71.0638 366.553 70.3276L367.159 69.8513C367.692 70.5441 368.305 71.0998 368.997 71.5184C369.703 71.9226 370.604 72.1247 371.699 72.1247C372.968 72.1247 373.941 71.836 374.619 71.2586C375.311 70.6668 375.656 69.808 375.656 68.6821C375.656 68.1192 375.57 67.6429 375.397 67.2532C375.224 66.8634 374.986 66.5459 374.683 66.3005C374.381 66.0407 374.028 65.8386 373.624 65.6943C373.22 65.5355 372.788 65.4128 372.327 65.3262L370.878 65.0447C370.143 64.9004 369.523 64.7055 369.018 64.4602C368.514 64.2003 368.103 63.9044 367.786 63.5725C367.483 63.226 367.26 62.8508 367.115 62.4466C366.986 62.028 366.921 61.5806 366.921 61.1042C366.921 60.4547 367.029 59.8846 367.245 59.3938C367.476 58.903 367.793 58.4989 368.197 58.1813C368.615 57.8493 369.112 57.604 369.689 57.4452C370.265 57.2864 370.907 57.207 371.613 57.207C372.737 57.207 373.667 57.4019 374.402 57.7916C375.152 58.1813 375.75 58.7082 376.197 59.3721L375.592 59.8052C375.159 59.1989 374.619 58.737 373.97 58.4195C373.321 58.0875 372.521 57.9215 371.57 57.9215C370.359 57.9215 369.415 58.1813 368.737 58.701C368.06 59.2206 367.721 60.0145 367.721 61.0826C367.721 61.6166 367.807 62.0713 367.98 62.4466C368.153 62.8075 368.384 63.1106 368.672 63.356C368.975 63.6013 369.328 63.8034 369.732 63.9622C370.135 64.1065 370.575 64.222 371.051 64.3086L372.5 64.5901C373.264 64.7488 373.898 64.9581 374.402 65.2179C374.921 65.4778 375.332 65.7809 375.635 66.1273C375.938 66.4737 376.147 66.8562 376.262 67.2748C376.392 67.6934 376.457 68.1408 376.457 68.6172C376.457 69.9884 376.024 71.0349 375.159 71.7566C374.309 72.4783 373.148 72.8391 371.678 72.8391Z"/>
<path d="M379.066 72.5793V71.9081H381.337V58.138H379.066V57.4668H384.407V58.138H382.137V71.9081H384.407V72.5793H379.066Z"/>
<path d="M392.989 72.8391C391.173 72.8391 389.768 72.1896 388.773 70.8905C387.778 69.5915 387.281 67.6429 387.281 65.0447C387.281 62.4466 387.778 60.4908 388.773 59.1773C389.768 57.8638 391.173 57.207 392.989 57.207C394.143 57.207 395.123 57.4957 395.93 58.0731C396.752 58.636 397.372 59.3938 397.79 60.3464L397.119 60.7145C396.745 59.8485 396.204 59.1701 395.498 58.6793C394.806 58.1741 393.97 57.9215 392.989 57.9215C391.476 57.9215 390.287 58.47 389.422 59.567C388.571 60.664 388.146 62.2878 388.146 64.4385V65.651C388.146 67.8016 388.571 69.4183 389.422 70.5008C390.287 71.5834 391.476 72.1247 392.989 72.1247C394.042 72.1247 394.921 71.8648 395.627 71.3452C396.348 70.8112 396.889 70.0822 397.249 69.1585L397.898 69.5049C397.48 70.5153 396.853 71.3236 396.017 71.9298C395.195 72.536 394.186 72.8391 392.989 72.8391Z"/>
</mask>
<path d="M348.39 58.4411H348.303L342.768 67.8161L337.232 58.4628H337.146V72.5793H336.367V57.4668H337.492L342.746 66.3438H342.832L348.065 57.4668H349.168V72.5793H348.39V58.4411Z" fill="white"/>
<path d="M354.31 57.4668V66.7768C354.31 67.7295 354.375 68.545 354.505 69.2234C354.649 69.9018 354.887 70.4575 355.218 70.8905C355.55 71.3236 355.982 71.6411 356.516 71.8432C357.049 72.0308 357.719 72.1247 358.527 72.1247C359.319 72.1247 359.983 72.0308 360.516 71.8432C361.064 71.6411 361.503 71.3236 361.835 70.8905C362.166 70.4575 362.397 69.9018 362.527 69.2234C362.671 68.545 362.743 67.7295 362.743 66.7768V57.4668H363.543V66.6469C363.543 67.7583 363.457 68.711 363.284 69.5049C363.111 70.2843 362.822 70.9266 362.419 71.4318C362.03 71.9226 361.511 72.2834 360.862 72.5144C360.228 72.7309 359.442 72.8391 358.505 72.8391C357.568 72.8391 356.782 72.7309 356.148 72.5144C355.514 72.2834 355.002 71.9226 354.613 71.4318C354.224 70.9266 353.943 70.2843 353.77 69.5049C353.597 68.711 353.51 67.7583 353.51 66.6469V57.4668H354.31Z" fill="white"/>
<path d="M371.678 72.8391C370.438 72.8391 369.407 72.6082 368.586 72.1463C367.778 71.67 367.101 71.0638 366.553 70.3276L367.159 69.8513C367.692 70.5441 368.305 71.0998 368.997 71.5184C369.703 71.9226 370.604 72.1247 371.699 72.1247C372.968 72.1247 373.941 71.836 374.619 71.2586C375.311 70.6668 375.656 69.808 375.656 68.6821C375.656 68.1192 375.57 67.6429 375.397 67.2532C375.224 66.8634 374.986 66.5459 374.683 66.3005C374.381 66.0407 374.028 65.8386 373.624 65.6943C373.22 65.5355 372.788 65.4128 372.327 65.3262L370.878 65.0447C370.143 64.9004 369.523 64.7055 369.018 64.4602C368.514 64.2003 368.103 63.9044 367.786 63.5725C367.483 63.226 367.26 62.8508 367.115 62.4466C366.986 62.028 366.921 61.5806 366.921 61.1042C366.921 60.4547 367.029 59.8846 367.245 59.3938C367.476 58.903 367.793 58.4989 368.197 58.1813C368.615 57.8493 369.112 57.604 369.689 57.4452C370.265 57.2864 370.907 57.207 371.613 57.207C372.737 57.207 373.667 57.4019 374.402 57.7916C375.152 58.1813 375.75 58.7082 376.197 59.3721L375.592 59.8052C375.159 59.1989 374.619 58.737 373.97 58.4195C373.321 58.0875 372.521 57.9215 371.57 57.9215C370.359 57.9215 369.415 58.1813 368.737 58.701C368.06 59.2206 367.721 60.0145 367.721 61.0826C367.721 61.6166 367.807 62.0713 367.98 62.4466C368.153 62.8075 368.384 63.1106 368.672 63.356C368.975 63.6013 369.328 63.8034 369.732 63.9622C370.135 64.1065 370.575 64.222 371.051 64.3086L372.5 64.5901C373.264 64.7488 373.898 64.9581 374.402 65.2179C374.921 65.4778 375.332 65.7809 375.635 66.1273C375.938 66.4737 376.147 66.8562 376.262 67.2748C376.392 67.6934 376.457 68.1408 376.457 68.6172C376.457 69.9884 376.024 71.0349 375.159 71.7566C374.309 72.4783 373.148 72.8391 371.678 72.8391Z" fill="white"/>
<path d="M379.066 72.5793V71.9081H381.337V58.138H379.066V57.4668H384.407V58.138H382.137V71.9081H384.407V72.5793H379.066Z" fill="white"/>
<path d="M392.989 72.8391C391.173 72.8391 389.768 72.1896 388.773 70.8905C387.778 69.5915 387.281 67.6429 387.281 65.0447C387.281 62.4466 387.778 60.4908 388.773 59.1773C389.768 57.8638 391.173 57.207 392.989 57.207C394.143 57.207 395.123 57.4957 395.93 58.0731C396.752 58.636 397.372 59.3938 397.79 60.3464L397.119 60.7145C396.745 59.8485 396.204 59.1701 395.498 58.6793C394.806 58.1741 393.97 57.9215 392.989 57.9215C391.476 57.9215 390.287 58.47 389.422 59.567C388.571 60.664 388.146 62.2878 388.146 64.4385V65.651C388.146 67.8016 388.571 69.4183 389.422 70.5008C390.287 71.5834 391.476 72.1247 392.989 72.1247C394.042 72.1247 394.921 71.8648 395.627 71.3452C396.348 70.8112 396.889 70.0822 397.249 69.1585L397.898 69.5049C397.48 70.5153 396.853 71.3236 396.017 71.9298C395.195 72.536 394.186 72.8391 392.989 72.8391Z" fill="white"/>
<path d="M348.39 58.4411H348.303L342.768 67.8161L337.232 58.4628H337.146V72.5793H336.367V57.4668H337.492L342.746 66.3438H342.832L348.065 57.4668H349.168V72.5793H348.39V58.4411Z" stroke="white" stroke-width="0.886928" mask="url(#path-6-outside-1_1009_1167)"/>
<path d="M354.31 57.4668V66.7768C354.31 67.7295 354.375 68.545 354.505 69.2234C354.649 69.9018 354.887 70.4575 355.218 70.8905C355.55 71.3236 355.982 71.6411 356.516 71.8432C357.049 72.0308 357.719 72.1247 358.527 72.1247C359.319 72.1247 359.983 72.0308 360.516 71.8432C361.064 71.6411 361.503 71.3236 361.835 70.8905C362.166 70.4575 362.397 69.9018 362.527 69.2234C362.671 68.545 362.743 67.7295 362.743 66.7768V57.4668H363.543V66.6469C363.543 67.7583 363.457 68.711 363.284 69.5049C363.111 70.2843 362.822 70.9266 362.419 71.4318C362.03 71.9226 361.511 72.2834 360.862 72.5144C360.228 72.7309 359.442 72.8391 358.505 72.8391C357.568 72.8391 356.782 72.7309 356.148 72.5144C355.514 72.2834 355.002 71.9226 354.613 71.4318C354.224 70.9266 353.943 70.2843 353.77 69.5049C353.597 68.711 353.51 67.7583 353.51 66.6469V57.4668H354.31Z" stroke="white" stroke-width="0.886928" mask="url(#path-6-outside-1_1009_1167)"/>
<path d="M371.678 72.8391C370.438 72.8391 369.407 72.6082 368.586 72.1463C367.778 71.67 367.101 71.0638 366.553 70.3276L367.159 69.8513C367.692 70.5441 368.305 71.0998 368.997 71.5184C369.703 71.9226 370.604 72.1247 371.699 72.1247C372.968 72.1247 373.941 71.836 374.619 71.2586C375.311 70.6668 375.656 69.808 375.656 68.6821C375.656 68.1192 375.57 67.6429 375.397 67.2532C375.224 66.8634 374.986 66.5459 374.683 66.3005C374.381 66.0407 374.028 65.8386 373.624 65.6943C373.22 65.5355 372.788 65.4128 372.327 65.3262L370.878 65.0447C370.143 64.9004 369.523 64.7055 369.018 64.4602C368.514 64.2003 368.103 63.9044 367.786 63.5725C367.483 63.226 367.26 62.8508 367.115 62.4466C366.986 62.028 366.921 61.5806 366.921 61.1042C366.921 60.4547 367.029 59.8846 367.245 59.3938C367.476 58.903 367.793 58.4989 368.197 58.1813C368.615 57.8493 369.112 57.604 369.689 57.4452C370.265 57.2864 370.907 57.207 371.613 57.207C372.737 57.207 373.667 57.4019 374.402 57.7916C375.152 58.1813 375.75 58.7082 376.197 59.3721L375.592 59.8052C375.159 59.1989 374.619 58.737 373.97 58.4195C373.321 58.0875 372.521 57.9215 371.57 57.9215C370.359 57.9215 369.415 58.1813 368.737 58.701C368.06 59.2206 367.721 60.0145 367.721 61.0826C367.721 61.6166 367.807 62.0713 367.98 62.4466C368.153 62.8075 368.384 63.1106 368.672 63.356C368.975 63.6013 369.328 63.8034 369.732 63.9622C370.135 64.1065 370.575 64.222 371.051 64.3086L372.5 64.5901C373.264 64.7488 373.898 64.9581 374.402 65.2179C374.921 65.4778 375.332 65.7809 375.635 66.1273C375.938 66.4737 376.147 66.8562 376.262 67.2748C376.392 67.6934 376.457 68.1408 376.457 68.6172C376.457 69.9884 376.024 71.0349 375.159 71.7566C374.309 72.4783 373.148 72.8391 371.678 72.8391Z" stroke="white" stroke-width="0.886928" mask="url(#path-6-outside-1_1009_1167)"/>
<path d="M379.066 72.5793V71.9081H381.337V58.138H379.066V57.4668H384.407V58.138H382.137V71.9081H384.407V72.5793H379.066Z" stroke="white" stroke-width="0.886928" mask="url(#path-6-outside-1_1009_1167)"/>
<path d="M392.989 72.8391C391.173 72.8391 389.768 72.1896 388.773 70.8905C387.778 69.5915 387.281 67.6429 387.281 65.0447C387.281 62.4466 387.778 60.4908 388.773 59.1773C389.768 57.8638 391.173 57.207 392.989 57.207C394.143 57.207 395.123 57.4957 395.93 58.0731C396.752 58.636 397.372 59.3938 397.79 60.3464L397.119 60.7145C396.745 59.8485 396.204 59.1701 395.498 58.6793C394.806 58.1741 393.97 57.9215 392.989 57.9215C391.476 57.9215 390.287 58.47 389.422 59.567C388.571 60.664 388.146 62.2878 388.146 64.4385V65.651C388.146 67.8016 388.571 69.4183 389.422 70.5008C390.287 71.5834 391.476 72.1247 392.989 72.1247C394.042 72.1247 394.921 71.8648 395.627 71.3452C396.348 70.8112 396.889 70.0822 397.249 69.1585L397.898 69.5049C397.48 70.5153 396.853 71.3236 396.017 71.9298C395.195 72.536 394.186 72.8391 392.989 72.8391Z" stroke="white" stroke-width="0.886928" mask="url(#path-6-outside-1_1009_1167)"/>
</svg>
